# xmcd CD database file
#
# Track frame offsets:
#	150
#	22801
#	43362
#	66280
#	90900
#	111882
#	132758
#	152131
#	174732
#	196259
#	218280
#	242340
#	263906
#	283936
#	307614
#	329208
#
# Disc length: 4693 seconds
#
# Revision: 0
# Processed by: cddbd v1.5.1PL2 Copyright (c) Steve Scherf et al.
# Submitted via: CDex 1.50beta10
#
DISCID=da125310
DTITLE=Various Artist - Salsa Excitante
DYEAR=1900
DGENRE=Salsa
TTITLE0=Marc Anthony - Tu Amor me hace bien
TTITLE1=Tito Nieves - Fabricando Fantasia
TTITLE2=Michel - Cuando los sapo bailan flamenco
TTITLE3=Willie Gonzales - Por Que no esta conmigo
TTITLE4=ORQ, Inmensidad - Si estuvieras conmigo 
TTITLE5=Sonora Carurusell - Quiereme Siempre
TTITLE6=Jose Alberto - Hay Amores
TTITLE7=Oscar de Leon - Comuniquemonos
TTITLE8=Eddy Santiago - El Cielo LLoro
TTITLE9=Grupo Niche - Ni como amiga ni como amante
TTITLE10=Marc Anthony - Volando entre tus brazos
TTITLE11=Sexappeal - Amantes en silencio
TTITLE12=Franklin Negron - Lento
TTITLE13=Willie Gonzales - Hasme olvidarla
TTITLE14=Mantecaña - Gracias Amor
TTITLE15=Willie Colon - Idilio
EXTD=
EXTT0=
EXTT1=
EXTT2=
EXTT3=
EXTT4=
EXTT5=
EXTT6=
EXTT7=
EXTT8=
EXTT9=
EXTT10=
EXTT11=
EXTT12=
EXTT13=
EXTT14=
EXTT15=
PLAYORDER=
